<?xml version="1.0" encoding="UTF-8"?>
<svg version="1.1" xmlns="http://www.w3.org/2000/svg" width="45" height="39">
<path d="M0 0 C14.85 0 29.7 0 45 0 C45 12.87 45 25.74 45 39 C30.15 39 15.3 39 0 39 C0 26.13 0 13.26 0 0 Z " fill="#FBF9FE" transform="translate(0,0)"/>
<path d="M0 0 C3.11863768 3.082205 5.60296663 5.80889988 7 10 C5.20994059 10.36220266 3.41787943 10.71452469 1.625 11.0625 C0.62726562 11.25972656 -0.37046875 11.45695312 -1.3984375 11.66015625 C-4 12 -4 12 -6 11 C-11.3343333 10.812339 -11.3343333 10.812339 -16.5625 11.625 C-20.03415881 12.15910135 -22.71340818 11.09553061 -26 10 C-25.50971384 5.75573178 -24.44544451 3.98207963 -21.1875 1.25 C-20.15689453 0.36054688 -20.15689453 0.36054688 -19.10546875 -0.546875 C-13.16146794 -4.64922807 -5.84844155 -3.85748273 0 0 Z " fill="#5804FF" transform="translate(32,8)"/>
<path d="M0 0 C1.17755859 0.12568359 1.17755859 0.12568359 2.37890625 0.25390625 C8.18795288 0.81699175 13.21592265 0.88985805 19 0 C21.01633893 0.19356854 22.99844554 0.49976015 25 0.80859375 C28.12887824 1.10803718 30.92078962 0.57735195 34 0 C34 1.32 34 2.64 34 4 C27.71430243 7.14284879 21.65880239 6.1368687 15 5 C14.67 5.33 14.34 5.66 14 6 C8.98237317 6.4457809 4.55377389 6.35033491 0 4 C0 2.68 0 1.36 0 0 Z " fill="#5B09FF" transform="translate(5,28)"/>
<path d="M0 0 C1.17755859 0.12568359 1.17755859 0.12568359 2.37890625 0.25390625 C8.18795288 0.81699175 13.21592265 0.88985805 19 0 C21.01633893 0.19356854 22.99844554 0.49976015 25 0.80859375 C28.12887824 1.10803718 30.92078962 0.57735195 34 0 C34 1.32 34 2.64 34 4 C28.34127955 6.20828115 23.65935139 6.45158797 17.6875 5.4375 C15.03806674 4.73716842 15.03806674 4.73716842 13 6 C8.17387057 6.27843054 4.50092174 5.75645727 0 4 C0 2.68 0 1.36 0 0 Z " fill="#5C0AFF" transform="translate(5,21)"/>
<path d="M0 0 C5.15171623 -0.09038099 9.91913204 0.15318867 15 1 C14.67 2.32 14.34 3.64 14 5 C13.09636719 4.91621094 12.19273438 4.83242188 11.26171875 4.74609375 C10.08222656 4.64425781 8.90273438 4.54242187 7.6875 4.4375 C6.51574219 4.33308594 5.34398437 4.22867187 4.13671875 4.12109375 C0.96967425 3.81422566 0.96967425 3.81422566 -2 5 C-1.34 3.35 -0.68 1.7 0 0 Z " fill="#EFE7FF" transform="translate(18,18)"/>
<path d="M0 0 C2 0.33333333 4 0.66666667 6 1 C5.360625 1.12375 4.72125 1.2475 4.0625 1.375 C3.381875 1.58125 2.70125 1.7875 2 2 C1.67 2.66 1.34 3.32 1 4 C-1.97 3.67 -4.94 3.34 -8 3 C-8 2.01 -8 1.02 -8 0 C-5.10649156 -1.44675422 -3.14288032 -0.60440006 0 0 Z " fill="#E9DFFF" transform="translate(26,26)"/>
</svg>
